<svg width="70" height="70" viewBox="0 0 70 70" fill="none" xmlns="http://www.w3.org/2000/svg">
<path fill-rule="evenodd" clip-rule="evenodd" d="M17 35C17 25.6108 25.0656 18 35.0193 18C44.9729 18 53 25.6108 53 35C53 44.3892 44.9344 52 34.9807 52C32.3285 52.0049 29.7043 51.4482 27.2747 50.3654C26.8351 50.1646 26.3418 50.1208 25.8748 50.2411L20.7374 51.673C20.4987 51.7372 20.2445 51.6674 20.0699 51.4896C19.8953 51.3119 19.8267 51.053 19.8898 50.81L20.9172 46.985C21.0924 46.3389 20.954 45.6465 20.5448 45.1215C18.2604 42.2601 17.0091 38.6875 17 35ZM25 35C25 36.1046 25.8954 37 27 37C28.1046 37 29 36.1046 29 35C29 33.8954 28.1046 33 27 33C25.8954 33 25 33.8954 25 35ZM35 37C33.8954 37 33 36.1046 33 35C33 33.8954 33.8954 33 35 33C36.1046 33 37 33.8954 37 35C37 36.1046 36.1046 37 35 37ZM42 35C42 36.1046 42.8954 37 44 37C45.1046 37 46 36.1046 46 35C46 33.8954 45.1046 33 44 33C42.8954 33 42 33.8954 42 35Z" fill="#F7F930"/>
<path fill-rule="evenodd" clip-rule="evenodd" d="M35 70C54.33 70 70 54.33 70 35C70 15.67 54.33 0 35 0C15.67 0 0 15.67 0 35C0 54.33 15.67 70 35 70ZM35 66C52.1208 66 66 52.1208 66 35C66 17.8792 52.1208 4 35 4C17.8792 4 4 17.8792 4 35C4 52.1208 17.8792 66 35 66Z" fill="#F7F930"/>
</svg>
