<svg width="1419" height="39" viewBox="0 0 1419 39" fill="none" xmlns="http://www.w3.org/2000/svg">
<path fill-rule="evenodd" clip-rule="evenodd" d="M1027.74 0L1028.09 0.364813L1040.32 13.0477H1129.42L1131.51 10.4812L1127.97 7.0613L1127.08 6.20185H1128.32H1136.33H1137.6L1136.68 7.06711L1133.06 10.4508L1141.02 18.3401L1146.25 13.1914L1146.4 13.0477H1146.6H1396.45H1396.67L1396.81 13.2051L1403.56 20.376H1436.86L1440.12 16.6239L1441 15.6162V16.9522V37.6312V38.1312H1440.5H0.5H0V37.6312V15.6503V15.1503H0.5H32.0838L39.7245 6.97779L39.8728 6.81926H40.0898H52.7358H52.9538L53.1022 6.97897L68.896 23.982L77.8032 15.2924L77.9492 15.1499L78.1531 15.1503L311.621 15.5081L325.303 2.0414L325.619 1.7312L325.965 2.00608L332.03 6.81926H367.962H368.158L368.302 6.95296L382.749 20.376H414.864L421.657 13.2039L421.804 13.0477H422.02H495.976H496.173L496.317 13.1825L501.758 18.27L509.753 10.4413L506.284 7.0599L505.404 6.20185H506.633H514.251H515.463L514.604 7.05637L511.21 10.4309L513.573 13.0477H678.662L690.786 0.946579L691.134 0.600107L691.487 0.940509L715.417 24.0101L724.469 15.6413L724.613 15.5085H724.808H728.156H728.354L728.499 15.6442L730.252 17.2931L732.347 15.289L732.492 15.1503H732.693H986.561H986.804L986.954 15.3413L988.358 17.1285L989.979 15.3169L990.128 15.1503H990.352H994.356H994.561L994.707 15.2949L1003.49 23.9942L1027.38 0.356388L1027.74 0ZM987.597 17.7781L986.318 16.1503H732.894L731.024 17.9388L733.797 20.5094L734.732 21.376H733.457H727.503H726.359L727.136 20.5365L729.511 17.969L727.958 16.5085H725.004L715.749 25.0648L715.402 25.3852L715.062 25.0576L691.146 2.00085L679.222 13.9016L679.076 14.0477H678.869H513.351H513.129L512.98 13.8828L510.487 11.122L502.116 19.3193L501.774 19.654L501.425 19.3272L495.779 14.0477H422.235L415.442 21.2198L415.294 21.376H415.079H382.553H382.357L382.213 21.2423L367.766 7.81926H331.856H331.682L331.545 7.71092L325.69 3.06429L312.176 16.3648L312.03 16.5088L311.825 16.5085L78.3556 16.1506L69.2275 25.0556L68.8608 25.4134L68.5121 25.0379L52.5178 7.81926H40.3068L32.6661 15.9917L32.5179 16.1503H32.3009H1V37.1312H1440V18.2883L1437.46 21.2043L1437.31 21.376H1437.08H1403.34H1403.13L1402.98 21.2186L1396.23 14.0477H1146.81L1141.37 19.399L1141.02 19.7454L1140.67 19.3981L1132.29 11.1015L1130.05 13.8629L1129.9 14.0477H1129.66H1040.1H1039.89L1039.74 13.8947L1027.72 1.42354L1003.85 25.0531L1003.49 25.4012L1003.14 25.053L994.15 16.1503H990.575L989.114 17.784L992.069 20.5084L993.01 21.376H991.73H985.21H984.004L984.856 20.5227L987.597 17.7781ZM1132.26 9.82207L1129.55 7.20185H1135.07L1132.26 9.82207ZM510.477 9.75021L507.862 7.20185H513.039L510.477 9.75021ZM730.279 18.6119L728.647 20.376H732.182L730.279 18.6119ZM988.35 18.4397L990.45 20.376H986.416L988.35 18.4397ZM101.987 19.6073H100.47V24.5219H101.987V19.6073ZM104.527 19.6073H103.003V24.5219H104.527V19.6073ZM117.012 19.597H115.001V24.5291H117.012V19.597ZM137.485 19.5693H132.51V24.5253H137.485V19.5693Z" fill="#F7F930"/>
</svg>
