<svg width="1440" height="38" viewBox="0 0 1440 38" fill="none" xmlns="http://www.w3.org/2000/svg">
<path fill-rule="evenodd" clip-rule="evenodd" d="M412.759 38.6311L412.408 38.2663L400.185 25.5834H311.077L308.993 28.1499L312.53 31.5698L313.419 32.4293H312.182H304.166H302.899L303.824 31.564L307.444 28.1803L299.475 20.291L294.247 25.4397L294.101 25.5834H293.896H44.0502H43.8341L43.686 25.426L36.9407 18.2551H3.64294L0.377197 22.0072L-0.5 23.0149V21.6789V0.999884V0.499884H0H1440H1440.5V0.999884V22.9809V23.4809H1440H1408.42L1400.78 31.6533L1400.63 31.8118H1400.41H1387.76H1387.55L1387.4 31.6521L1371.6 14.6492L1362.7 23.3388L1362.55 23.4812L1362.35 23.4809L1128.88 23.123L1115.2 36.5897L1114.88 36.8999L1114.53 36.625L1108.47 31.8118H1072.54H1072.34L1072.2 31.6781L1057.75 18.2551H1025.64L1018.84 25.4272L1018.7 25.5834H1018.48H944.524H944.327L944.183 25.4486L938.742 20.3611L930.747 28.1898L934.216 31.5712L935.096 32.4293H933.867H926.249H925.037L925.896 31.5747L929.29 28.2002L926.927 25.5834H761.838L749.714 37.6845L749.366 38.031L749.013 37.6906L725.083 14.621L716.031 22.9898L715.887 23.1226H715.692H712.344H712.146L712.001 22.9869L710.248 21.338L708.153 23.3422L708.008 23.4809H707.807H453.939H453.696L453.546 23.2898L452.142 21.5027L450.521 23.3142L450.372 23.4809H450.148H446.144H445.939L445.793 23.3362L437.005 14.6369L413.12 38.2747L412.759 38.6311ZM452.903 20.853L454.182 22.4809H707.606L709.476 20.6923L706.703 18.1217L705.768 17.2551H707.043H712.997H714.141L713.364 18.0946L710.989 20.6621L712.542 22.1226H715.496L724.751 13.5663L725.098 13.2459L725.438 13.5735L749.354 36.6303L761.278 24.7295L761.424 24.5834H761.631H927.149H927.371L927.52 24.7483L930.013 27.5091L938.384 19.3118L938.726 18.9771L939.075 19.3039L944.721 24.5834H1018.27L1025.06 17.4113L1025.21 17.2551H1025.42H1057.95H1058.14L1058.29 17.3888L1072.73 30.8118H1108.64H1108.82L1108.95 30.9202L1114.81 35.5668L1128.32 22.2663L1128.47 22.1223L1128.68 22.1226L1362.14 22.4805L1371.27 13.5755L1371.64 13.2177L1371.99 13.5932L1387.98 30.8118H1400.19L1407.83 22.6394L1407.98 22.4809H1408.2H1439.5V1.49988H0.5V20.3428L3.03809 17.4268L3.18762 17.2551H3.41528H37.1567H37.3728L37.5209 17.4125L44.2662 24.5834H293.692L299.125 19.2321L299.477 18.8857L299.828 19.233L308.208 27.5296L310.45 24.7682L310.6 24.5834H310.839H400.397H400.61L400.757 24.7364L412.776 37.2076L436.654 13.5781L437.005 13.2299L437.357 13.5781L446.35 22.4809H449.925L451.386 20.8471L448.431 18.1227L447.49 17.2551H448.77H455.29H456.496L455.644 18.1084L452.903 20.853ZM308.236 28.809L310.946 31.4293H305.433L308.236 28.809ZM930.023 28.8809L932.638 31.4293H927.461L930.023 28.8809ZM710.221 20.0192L711.853 18.2551H708.318L710.221 20.0192ZM452.15 20.1914L450.05 18.2551H454.084L452.15 20.1914ZM1338.51 19.0238H1340.03V14.1092H1338.51V19.0238ZM1335.97 19.0238H1337.5V14.1092H1335.97V19.0238ZM1323.49 19.0341H1325.5V14.102H1323.49V19.0341ZM1303.02 19.0618H1307.99V14.1058H1303.02V19.0618Z" fill="#F7F930"/>
</svg>
