<svg width="70" height="70" viewBox="0 0 70 70" fill="none" xmlns="http://www.w3.org/2000/svg">
<path fill-rule="evenodd" clip-rule="evenodd" d="M22.625 21H47.375C50.4816 21 53 23.5184 53 26.625V43.6607C53 46.7673 50.4816 49.2857 47.375 49.2857H22.625C19.5184 49.2857 17 46.7673 17 43.6607V26.625C17 23.5184 19.5184 21 22.625 21ZM36.9286 39.1736L47.5486 32.9507L47.5164 32.9443C48.1764 32.6345 48.6053 31.979 48.6248 31.2501C48.6443 30.5213 48.2511 29.8438 47.6087 29.4991C46.9662 29.1544 46.1843 29.2015 45.5879 29.6207L35 35.85L24.38 29.6271C23.7835 29.2079 23.0016 29.1608 22.3592 29.5055C21.7167 29.8502 21.3236 30.5277 21.3431 31.2566C21.3626 31.9854 21.7914 32.6409 22.4514 32.9507L33.0264 39.1736C34.2312 39.88 35.7238 39.88 36.9286 39.1736Z" fill="#F7F930"/>
<path fill-rule="evenodd" clip-rule="evenodd" d="M35 70C54.33 70 70 54.33 70 35C70 15.67 54.33 0 35 0C15.67 0 0 15.67 0 35C0 54.33 15.67 70 35 70ZM35 66C52.1208 66 66 52.1208 66 35C66 17.8792 52.1208 4 35 4C17.8792 4 4 17.8792 4 35C4 52.1208 17.8792 66 35 66Z" fill="#F7F930"/>
</svg>
