<svg width="152" height="104" viewBox="0 0 152 104" fill="none" xmlns="http://www.w3.org/2000/svg">
<path d="M0.315633 3C0.315633 4.47276 1.50954 5.66667 2.9823 5.66667C4.45506 5.66667 5.64897 4.47276 5.64897 3C5.64897 1.52724 4.45506 0.333333 2.9823 0.333333C1.50954 0.333333 0.315633 1.52724 0.315633 3ZM46 3H46.5V2.5H46V3ZM46 100.477H45.5V100.977H46V100.477ZM146.259 100.477C146.259 101.95 147.452 103.144 148.925 103.144C150.398 103.144 151.592 101.95 151.592 100.477C151.592 99.0041 150.398 97.8102 148.925 97.8102C147.452 97.8102 146.259 99.0041 146.259 100.477ZM2.9823 3.5H46V2.5H2.9823L2.9823 3.5ZM45.5 3V100.477H46.5V3H45.5ZM46 100.977H148.925V99.9769H46V100.977Z" fill="#F7F930"/>
</svg>
