<svg width="70" height="70" viewBox="0 0 70 70" fill="none" xmlns="http://www.w3.org/2000/svg">
<path fill-rule="evenodd" clip-rule="evenodd" d="M38.7698 25.8879C36.533 25.1392 34.1133 25.1392 31.8765 25.8879C31.4392 26.0356 30.961 26.0029 30.5479 25.7969C30.1348 25.5909 29.8209 25.2287 29.6757 24.7906L28.1176 19.9404C27.971 19.51 28.0377 19.0354 28.2974 18.6621C28.557 18.2888 28.9787 18.0612 29.4332 18.0488C30.2066 18.0491 30.9465 18.3643 31.4824 18.9219L32.6586 20.1344C32.844 20.3256 33.1282 20.3825 33.373 20.2776C33.6178 20.1727 33.7725 19.9276 33.762 19.6615C33.7258 19.0806 34.0152 18.5275 34.5131 18.2261C35.0111 17.9246 35.6352 17.9246 36.1332 18.2261C36.6311 18.5275 36.9205 19.0806 36.8843 19.6615C36.8738 19.9276 37.0285 20.1727 37.2733 20.2776C37.5181 20.3825 37.8023 20.3256 37.9877 20.1344L39.1639 18.9219C39.6961 18.3661 40.4315 18.0509 41.2009 18.0488C41.6537 18.0612 42.0741 18.2862 42.3354 18.6561C42.5967 19.026 42.6683 19.4975 42.5287 19.9283L40.9706 24.7784C40.8279 25.2188 40.515 25.5839 40.1016 25.7923C39.6882 26.0006 39.2087 26.0351 38.7698 25.8879ZM25.0741 34.1999C24.2643 35.3485 23.5563 36.5657 22.9583 37.8375C21.78 40.1871 21.1126 42.7595 21 45.3856C21 48.1926 22.1701 50.1084 24.4739 51.0785C26.5049 51.9333 29.2574 52 31.9553 52H38.6849C43.3108 52 49.6463 52 49.6463 45.3735C49.5326 42.7449 48.8631 40.1703 47.682 37.8193C47.084 36.5475 46.376 35.3303 45.5661 34.1817C43.0561 30.6471 40.0551 28.4706 36.9631 27.8947L36.7449 27.8522L36.4599 27.8159C35.7038 27.7096 34.9365 27.7096 34.1803 27.8159L33.8954 27.8522L33.6771 27.8947C30.5851 28.4888 27.578 30.6653 25.0741 34.1999ZM34.1682 35.0547C34.3288 34.5524 34.7957 34.2115 35.3231 34.2115C35.8506 34.2115 36.3175 34.5524 36.4781 35.0547H37.5209C38.1905 35.0547 38.7334 35.5976 38.7334 36.2673C38.7334 36.9369 38.1905 37.4798 37.5209 37.4798H34.5623C34.048 37.4831 33.6319 37.8992 33.6286 38.4135V38.9652C33.6449 39.47 34.0573 39.8716 34.5623 39.8746H36.084C37.9376 39.8779 39.4394 41.3797 39.4428 43.2333V43.785C39.4549 45.4977 38.1786 46.9462 36.4781 47.1498C36.3175 47.6522 35.8506 47.9931 35.3231 47.9931C34.7957 47.9931 34.3288 47.6522 34.1682 47.1498H33.1254C32.4557 47.1498 31.9129 46.607 31.9129 45.9373C31.9129 45.2676 32.4557 44.7248 33.1254 44.7248H36.078C36.5922 44.7214 37.0083 44.3054 37.0116 43.7911V43.2394C37.0116 42.7228 36.5946 42.303 36.078 42.2997H34.5623C32.7063 42.2963 31.2035 40.7908 31.2035 38.9349V38.3832C31.2095 36.6864 32.4778 35.2596 34.1621 35.0547H34.1682Z" fill="#F7F930"/>
<path fill-rule="evenodd" clip-rule="evenodd" d="M35 70C54.33 70 70 54.33 70 35C70 15.67 54.33 0 35 0C15.67 0 0 15.67 0 35C0 54.33 15.67 70 35 70ZM35 66C52.1208 66 66 52.1208 66 35C66 17.8792 52.1208 4 35 4C17.8792 4 4 17.8792 4 35C4 52.1208 17.8792 66 35 66Z" fill="#F7F930"/>
</svg>
