<svg width="182" height="54" viewBox="0 0 182 54" fill="none" xmlns="http://www.w3.org/2000/svg">
<path d="M181.592 3C181.592 4.47276 180.398 5.66667 178.925 5.66667C177.452 5.66667 176.259 4.47276 176.259 3C176.259 1.52724 177.452 0.333333 178.925 0.333333C180.398 0.333333 181.592 1.52724 181.592 3ZM135.907 3H135.407V2.5H135.907V3ZM135.907 50.4769H136.407V50.9769H135.907V50.4769ZM5.64896 50.4769C5.64896 51.9496 4.45505 53.1435 2.98228 53.1435C1.50952 53.1435 0.315613 51.9496 0.315613 50.4769C0.315613 49.0041 1.50952 47.8102 2.98228 47.8102C4.45505 47.8102 5.64896 49.0041 5.64896 50.4769ZM178.925 3.5H135.907V2.5H178.925V3.5ZM136.407 3V50.4769H135.407V3H136.407ZM135.907 50.9769H2.98228V49.9769H135.907V50.9769Z" fill="#F7F930"/>
</svg>
